# xmcd
#
# Track frame offsets: 
#        150
#        24072
#        47850
#        72717
#        95677
#        121502
#        136650
#        167452
#        188897
#        208525
#        222630
#        254980
#
# Disc length: 4440 seconds
#
# Revision: 3
# Processed by: cddbd v1.5.2PL0 Copyright (c) Steve Scherf et al.
# Submitted via: ExactAudioCopy v1.1
#
DISCID=b011560c
DTITLE=寺井尚子 (vn) Naoki Kitajima (p,el-p,syn,org) Yoshihiko Hosono (g) 
DTITLE=Jumbo Ono (b) Go Nakazawa (d,perc) - Anthem
DYEAR=2003
DGENRE=Jazz
TTITLE0=Those Foolisy Days
TTITLE1=Love is a Many Splendored Thing
TTITLE2=Once Upon a Dream
TTITLE3=Hymn A L'Amour
TTITLE4=Ten-Gallons Shoes
TTITLE5=Straight Flash
TTITLE6=I am Hear for You
TTITLE7=Millonga in Sorrow
TTITLE8=Love on the Breeze
TTITLE9=Where Does Our Love Go
TTITLE10=Somewhere Sometime
TTITLE11=cpcd
EXTD=YEAR: 2003
EXTT0=
EXTT1=
EXTT2=
EXTT3=
EXTT4=
EXTT5=
EXTT6=
EXTT7=
EXTT8=
EXTT9=
EXTT10=
EXTT11=
PLAYORDER=
